<svg width="242" height="271" viewBox="0 0 242 271" fill="none" xmlns="http://www.w3.org/2000/svg">
<circle cx="101.546" cy="83.7421" r="27.5" transform="rotate(-22.5259 101.546 83.7421)" fill="#D0F6FF"/>
<circle cx="86.3813" cy="66.7557" r="33" transform="rotate(-22.5259 86.3813 66.7557)" stroke="#21B7E2" stroke-width="4"/>
<path d="M77.6976 84.9085C68.7257 82.4014 63.4849 73.0958 65.992 64.1239" stroke="#21B7E2" stroke-width="4" stroke-linecap="round"/>
<circle cx="32.9192" cy="90.5527" r="13.5" transform="rotate(-22.5259 32.9192 90.5527)" fill="#D0F6FF"/>
<circle cx="88.5286" cy="141.105" r="13.5" transform="rotate(-22.5259 88.5286 141.105)" fill="#D0F6FF"/>
<circle cx="223.642" cy="198.385" r="13.5" transform="rotate(-22.5259 223.642 198.385)" fill="#D0F6FF"/>
<circle cx="25.6636" cy="82.1946" r="15" transform="rotate(-22.5259 25.6636 82.1946)" stroke="#21B7E2" stroke-width="4"/>
<circle cx="61.0176" cy="124.368" r="10.5" transform="rotate(-22.5259 61.0176 124.368)" stroke="#21B7E2" stroke-width="4"/>
<path d="M29.1115 90.5079C25.5405 91.9889 21.6165 90.7082 20.347 87.6473" stroke="#21B7E2" stroke-width="4" stroke-linecap="round"/>
</svg>
